HIERARCHY
ROOT joint_Root
{
	OFFSET 0.0 0.0 0.0
	CHANNELS 6 Xposition Yposition Zposition Zrotation Xrotation Yrotation 
	JOINT Hips
	{
		OFFSET 4.5925 91.4895 -427.239
		CHANNELS 6 Xposition Yposition Zposition Zrotation Xrotation Yrotation 
		JOINT Spine
		{
			OFFSET 15.7357 0.0 0.0
			CHANNELS 6 Xposition Yposition Zposition Zrotation Xrotation Yrotation 
			JOINT Chest
			{
				OFFSET 8.98455 -0.406207 0.0
				CHANNELS 6 Xposition Yposition Zposition Zrotation Xrotation Yrotation 
				JOINT Neck
				{
					OFFSET 16.3773 0.0 0.0
					CHANNELS 6 Xposition Yposition Zposition Zrotation Xrotation Yrotation 
					JOINT Head
					{
						OFFSET 6.45672 0.0 0.0
						CHANNELS 6 Xposition Yposition Zposition Zrotation Xrotation Yrotation 
						End Site
						{
							OFFSET 0.0 0.0 0.0
						}
					}
				}
				JOINT Shoulder_L
				{
					OFFSET 12.9942 -0.242716 4.98039
					CHANNELS 6 Xposition Yposition Zposition Zrotation Xrotation Yrotation 
					JOINT UpperArm_L
					{
						OFFSET 5.34809 0.0 0.0
						CHANNELS 6 Xposition Yposition Zposition Zrotation Xrotation Yrotation 
						JOINT LowerArm_L
						{
							OFFSET 24.3286 1.87007e-05 0.0
							CHANNELS 6 Xposition Yposition Zposition Zrotation Xrotation Yrotation 
							JOINT Hand_L
							{
								OFFSET 22.2916 0.0 0.0
								CHANNELS 6 Xposition Yposition Zposition Zrotation Xrotation Yrotation 
								End Site
								{
									OFFSET 0.0 0.0 0.0
								}
							}
						}
					}
				}
				JOINT Shoulder_R
				{
					OFFSET 12.9945 -0.242716 -4.98039
					CHANNELS 6 Xposition Yposition Zposition Zrotation Xrotation Yrotation 
					JOINT UpperArm_R
					{
						OFFSET -5.34813 0.0 0.0
						CHANNELS 6 Xposition Yposition Zposition Zrotation Xrotation Yrotation 
						JOINT LowerArm_R
						{
							OFFSET -24.3289 0.000322201 0.0
							CHANNELS 6 Xposition Yposition Zposition Zrotation Xrotation Yrotation 
							JOINT Hand_R
							{
								OFFSET -22.2915 -0.000108084 0.0
								CHANNELS 6 Xposition Yposition Zposition Zrotation Xrotation Yrotation 
								End Site
								{
									OFFSET 0.0 0.0 0.0
								}
							}
						}
					}
				}
			}
		}
		JOINT UpperLeg_L
		{
			OFFSET -2.19248 -6.46944 0.0
			CHANNELS 6 Xposition Yposition Zposition Zrotation Xrotation Yrotation 
			JOINT LowerLeg_L
			{
				OFFSET 39.0811 0.0 -1.23785e-05
				CHANNELS 6 Xposition Yposition Zposition Zrotation Xrotation Yrotation 
				JOINT Foot_L
				{
					OFFSET 40.9854 0.0 -1.26872e-05
					CHANNELS 6 Xposition Yposition Zposition Zrotation Xrotation Yrotation 
					JOINT Toes_L
					{
						OFFSET 11.7543 0.0 0.0
						CHANNELS 6 Xposition Yposition Zposition Zrotation Xrotation Yrotation 
						End Site
						{
							OFFSET 0.0 0.0 0.0
						}
					}
				}
			}
		}
		JOINT UpperLeg_R
		{
			OFFSET -2.19251 6.46944 0.0
			CHANNELS 6 Xposition Yposition Zposition Zrotation Xrotation Yrotation 
			JOINT LowerLeg_R
			{
				OFFSET -39.0811 -0.00228153 -0.0401928
				CHANNELS 6 Xposition Yposition Zposition Zrotation Xrotation Yrotation 
				JOINT Foot_R
				{
					OFFSET -40.9854 0.0 0.0
					CHANNELS 6 Xposition Yposition Zposition Zrotation Xrotation Yrotation 
					JOINT Toes_R
					{
						OFFSET -11.7543 0.0 0.0
						CHANNELS 6 Xposition Yposition Zposition Zrotation Xrotation Yrotation 
						End Site
						{
							OFFSET 0.0 0.0 0.0
						}
					}
				}
			}
		}
	}
}
MOTION
Frames:	9
Frame Time:	0.0333333
0.000000 0.000000 0.000000 0.000000 0.000000 -0.000000 161.114000 90.465700 103.226000 89.525300 -35.029500 2.754960 15.735700 0.000005 -0.000001 86.456000 84.111600 -87.999500 8.984550 -0.406207 -0.000000 3.981180 -0.675970 -3.060020 16.377300 -0.000001 -0.000001 -0.621755 -7.795950 -4.169800 6.456720 -0.000001 -0.000000 -9.125520 -11.159100 -7.944790 12.994200 -0.242716 4.980390 -91.754200 5.928880 -73.485400 5.348090 -0.000007 -0.000001 -60.538400 20.338100 -8.725990 24.328600 0.000019 0.000005 9.058420 23.645300 -21.679500 22.291600 -0.000001 0.000005 14.487700 5.193210 2.889210 12.994500 -0.242716 -4.980390 88.722700 8.991930 -81.881000 -5.348130 -0.000001 -0.000004 -66.153800 34.353600 -18.415600 -24.328900 0.000322 -0.000009 1.770470 3.821610 -24.893900 -22.291500 -0.000108 -0.000004 16.198500 5.403470 -3.051360 -2.192480 -6.469440 -0.000000 -173.762000 -20.312200 -3.517710 39.081100 -0.000007 -0.000012 0.027788 -0.042248 33.333500 40.985400 -0.000006 -0.000013 -2.356860 3.425770 -71.737800 11.754300 -0.000000 0.000003 0.027272 0.052750 -15.812800 -2.192510 6.469440 -0.000001 167.685000 6.616740 169.892000 -39.081100 -0.002282 -0.040193 0.107952 -0.095406 47.658300 -40.985400 0.000008 0.000006 7.981210 -6.219510 -62.728300 -11.754300 -0.000006 -0.000006 -0.009975 -0.103453 -20.788100
0.000000 0.000000 0.000000 0.000000 0.000000 -0.000000 161.239000 91.162400 105.130000 88.938100 -35.708500 2.131130 15.735700 0.000005 -0.000001 80.736200 84.189600 -81.977400 8.984550 -0.406207 -0.000000 3.686220 -1.824100 -2.421040 16.377300 -0.000001 -0.000001 -0.301651 -7.933500 -4.653170 6.456720 -0.000001 -0.000000 -8.653800 -10.491500 -8.783380 12.994200 -0.242716 4.980390 -91.685900 5.798980 -73.758900 5.348090 -0.000007 -0.000001 -58.115300 19.237900 -11.499200 24.328600 0.000019 0.000005 8.785390 21.623000 -22.753200 22.291600 -0.000001 0.000005 14.859600 5.195070 2.842720 12.994500 -0.242716 -4.980390 88.583700 9.040260 -81.057600 -5.348130 -0.000001 -0.000004 -66.473500 35.700200 -14.820800 -24.328900 0.000322 -0.000009 1.587900 3.339180 -25.466200 -22.291500 -0.000108 -0.000004 14.509700 5.414100 -3.403000 -2.192480 -6.469440 -0.000000 -173.882000 -20.403300 -1.906180 39.081100 -0.000007 -0.000012 0.021529 -0.035180 31.464800 40.985400 -0.000006 -0.000013 -2.319000 2.949150 -69.913800 11.754300 -0.000000 0.000003 0.000371 0.006497 -16.313600 -2.192510 6.469440 -0.000001 170.002000 9.687720 167.739000 -39.081100 -0.002282 -0.040193 0.112126 -0.094078 49.170300 -40.985400 0.000008 0.000006 6.792380 -3.540500 -62.712300 -11.754300 -0.000006 -0.000006 -0.010459 -0.107034 -20.934600
0.000000 0.000000 0.000000 0.000000 0.000000 -0.000000 161.239000 91.778800 106.776000 88.297100 -36.368300 1.176820 15.735700 0.000005 -0.000001 75.179200 84.241900 -76.199000 8.984550 -0.406207 -0.000000 3.345690 -2.903060 -1.952970 16.377300 -0.000001 -0.000001 -0.107578 -7.889220 -4.594570 6.456720 -0.000001 -0.000000 -8.171440 -10.108900 -8.662260 12.994200 -0.242716 4.980390 -91.502200 5.196920 -73.853900 5.348090 -0.000007 -0.000001 -56.120400 17.713300 -14.524900 24.328600 0.000019 0.000005 9.212120 21.881200 -23.517100 22.291600 -0.000001 0.000005 14.451400 5.191460 2.932760 12.994500 -0.242716 -4.980390 88.415000 9.374090 -80.358700 -5.348130 -0.000001 -0.000004 -66.469400 36.820200 -10.834800 -24.328900 0.000322 -0.000009 1.740690 3.481220 -26.599900 -22.291500 -0.000108 -0.000004 13.451000 5.415480 -3.448060 -2.192480 -6.469440 -0.000000 -173.829000 -21.100800 -0.869971 39.081100 -0.000007 -0.000012 0.019360 -0.033633 29.925400 40.985400 -0.000006 -0.000013 -2.269380 2.993030 -67.997600 11.754300 -0.000000 0.000003 -0.002647 -0.036549 -18.063100 -2.192510 6.469440 -0.000001 173.304000 12.317000 165.697000 -39.081100 -0.002282 -0.040193 0.096270 -0.082960 48.270700 -40.985400 0.000008 0.000006 4.762660 -0.241976 -62.554900 -11.754300 -0.000006 -0.000006 -0.010463 -0.107065 -20.935800
0.000000 0.000000 0.000000 0.000000 0.000000 -0.000000 161.171000 92.235500 108.249000 87.810400 -37.140400 0.053405 15.735700 0.000005 -0.000001 70.658000 84.309200 -71.495500 8.984550 -0.406207 -0.000000 2.951980 -3.730710 -1.577440 16.377300 -0.000001 -0.000001 -0.136272 -7.997170 -4.327040 6.456720 -0.000001 -0.000000 -7.651130 -9.924480 -7.946060 12.994200 -0.242716 4.980390 -91.287600 4.539300 -74.145900 5.348090 -0.000007 -0.000001 -54.507400 15.953000 -17.213900 24.328600 0.000019 0.000005 9.723360 22.344400 -24.262000 22.291600 -0.000001 0.000005 14.110200 5.182950 3.143220 12.994500 -0.242716 -4.980390 88.296300 9.541360 -79.827200 -5.348130 -0.000001 -0.000004 -66.841300 36.595800 -6.741140 -24.328900 0.000322 -0.000009 2.066520 4.065310 -26.987400 -22.291500 -0.000108 -0.000004 13.249500 5.415670 -3.454180 -2.192480 -6.469440 -0.000000 -173.864000 -22.184200 -0.380343 39.081100 -0.000007 -0.000012 0.019625 -0.035596 28.868800 40.985400 -0.000006 -0.000013 -2.111050 3.253590 -66.413100 11.754300 -0.000000 0.000003 -0.006615 -0.076331 -19.683900 -2.192510 6.469440 -0.000001 177.338000 14.844600 163.831000 -39.081100 -0.002282 -0.040193 0.062674 -0.059102 45.149000 -40.985400 0.000008 0.000006 4.194510 1.777540 -62.911500 -11.754300 -0.000006 -0.000006 -0.010756 -0.109200 -21.023200
0.000000 0.000000 0.000000 0.000000 0.000000 -0.000000 161.009000 92.495600 109.647000 87.393400 -38.017800 -1.062940 15.735700 0.000005 -0.000001 66.702600 84.326500 -67.392800 8.984550 -0.406207 -0.000000 2.636580 -4.452970 -1.276990 16.377300 -0.000001 -0.000001 -0.337806 -8.154030 -3.929930 6.456720 -0.000001 -0.000000 -7.275730 -9.877260 -7.002390 12.994200 -0.242716 4.980390 -91.117300 4.049890 -74.562900 5.348090 -0.000007 -0.000001 -52.882600 14.110000 -19.323800 24.328600 0.000019 0.000005 9.917430 21.886200 -25.128400 22.291600 -0.000001 0.000005 14.076300 5.181540 3.177760 12.994500 -0.242716 -4.980390 88.177300 9.748580 -79.356200 -5.348130 -0.000001 -0.000004 -67.099800 35.309200 -3.356450 -24.328900 0.000322 -0.000009 2.091490 4.325470 -25.847900 -22.291500 -0.000108 -0.000004 13.305200 5.423570 -3.719980 -2.192480 -6.469440 -0.000000 -173.885000 -23.366900 -0.110936 39.081100 -0.000007 -0.000012 0.020556 -0.038158 28.310500 40.985400 -0.000006 -0.000013 -2.183390 3.625550 -65.255800 11.754300 -0.000000 0.000003 -0.011941 -0.117623 -21.371800 -2.192510 6.469440 -0.000001 -178.057000 17.482500 162.302000 -39.081100 -0.002282 -0.040193 0.029032 -0.030386 40.283900 -40.985400 0.000008 0.000006 3.932810 2.355330 -63.607000 -11.754300 -0.000006 -0.000006 -0.010289 -0.105785 -20.883500
0.000000 0.000000 0.000000 0.000000 0.000000 -0.000000 160.769000 92.523200 111.110000 87.273700 -38.837300 -1.894770 15.735700 0.000005 -0.000001 62.573300 84.299000 -63.196600 8.984550 -0.406207 -0.000000 2.335470 -5.218350 -1.139610 16.377300 -0.000001 -0.000001 -0.523424 -8.399740 -3.568100 6.456720 -0.000001 -0.000000 -7.027630 -9.949040 -6.038650 12.994200 -0.242716 4.980390 -91.021900 3.811620 -74.979500 5.348090 -0.000007 -0.000001 -51.030900 12.633900 -20.827700 24.328600 0.000019 0.000005 9.920860 20.986300 -26.029100 22.291600 -0.000001 0.000005 14.348300 5.185550 3.079410 12.994500 -0.242716 -4.980390 88.034800 10.052800 -78.879100 -5.348130 -0.000001 -0.000004 -67.187100 32.621600 -0.710348 -24.328900 0.000322 -0.000009 1.929350 4.488620 -23.300300 -22.291500 -0.000108 -0.000004 13.359300 5.411670 -3.320840 -2.192480 -6.469440 -0.000000 -174.202000 -24.007000 0.088481 39.081100 -0.000007 -0.000012 0.020173 -0.037555 28.241700 40.985400 -0.000006 -0.000013 -2.406510 3.586570 -64.770200 11.754300 -0.000000 0.000003 -0.017491 -0.152984 -22.822900 -2.192510 6.469440 -0.000001 -173.476000 20.425700 161.132000 -39.081100 -0.002282 -0.040193 0.008433 -0.007487 34.473900 -40.985400 0.000008 0.000006 3.120020 3.416250 -64.023200 -11.754300 -0.000006 -0.000006 -0.010776 -0.109348 -21.029200
0.000000 0.000000 0.000000 0.000000 0.000000 -0.000000 160.532000 92.345600 112.745000 87.801800 -39.866000 -2.260950 15.735700 0.000005 -0.000001 59.054600 84.295100 -59.763600 8.984550 -0.406207 -0.000000 1.994170 -5.827550 -1.316040 16.377300 -0.000001 -0.000001 -0.728601 -8.753580 -3.220450 6.456720 -0.000001 -0.000000 -6.844200 -10.186600 -5.257740 12.994200 -0.242716 4.980390 -90.981600 3.756970 -75.346600 5.348090 -0.000007 -0.000001 -49.258800 11.613500 -21.927700 24.328600 0.000019 0.000005 9.870660 20.212000 -26.731100 22.291600 -0.000001 0.000005 14.921600 5.191730 2.925940 12.994500 -0.242716 -4.980390 87.921300 10.283200 -78.507200 -5.348130 -0.000001 -0.000004 -67.008400 28.605800 1.031490 -24.328900 0.000322 -0.000009 1.777270 5.081690 -19.321100 -22.291500 -0.000108 -0.000004 13.786000 5.402280 -3.012420 -2.192480 -6.469440 -0.000000 -175.128000 -24.385700 0.313943 39.081100 -0.000007 -0.000012 0.018301 -0.033750 28.468800 40.985400 -0.000006 -0.000013 -2.775450 3.333520 -64.613000 11.754300 -0.000000 0.000003 -0.024253 -0.189812 -24.340900 -2.192510 6.469440 -0.000001 -169.577000 22.040100 160.056000 -39.081100 -0.002282 -0.040193 -0.002420 0.010486 28.631000 -40.985400 0.000008 0.000006 2.502880 4.634370 -63.224000 -11.754300 -0.000006 -0.000006 -0.010761 -0.109239 -21.024800
0.000000 0.000000 0.000000 0.000000 0.000000 -0.000000 160.244000 91.989900 114.614000 88.737200 -40.847300 -2.233800 15.735700 0.000005 -0.000001 55.546500 84.302600 -56.393800 8.984550 -0.406207 -0.000000 1.593940 -6.397340 -1.605340 16.377300 -0.000001 -0.000001 -0.854907 -9.127630 -3.119490 6.456720 -0.000001 -0.000000 -6.708870 -10.559100 -4.552830 12.994200 -0.242716 4.980390 -90.949900 3.690510 -75.555200 5.348090 -0.000007 -0.000001 -48.254300 10.837600 -22.549500 24.328600 0.000019 0.000005 9.977050 19.850000 -27.387000 22.291600 -0.000001 0.000005 15.270200 5.195530 2.831190 12.994500 -0.242716 -4.980390 87.852000 10.340600 -78.197700 -5.348130 -0.000001 -0.000004 -66.600400 23.850600 2.154350 -24.328900 0.000322 -0.000009 1.673690 6.340040 -14.837200 -22.291500 -0.000108 -0.000004 15.050000 5.370770 -2.018970 -2.192480 -6.469440 -0.000000 -176.112000 -25.373700 0.950259 39.081100 -0.000007 -0.000012 0.015062 -0.027513 28.697500 40.985400 -0.000006 -0.000013 -2.984600 3.892140 -64.739000 11.754300 -0.000000 0.000003 -0.032855 -0.230274 -26.017900 -2.192510 6.469440 -0.000001 -166.773000 21.924400 159.089000 -39.081100 -0.002282 -0.040193 -0.007475 0.024666 23.626200 -40.985400 0.000008 0.000006 2.095850 5.612860 -61.516400 -11.754300 -0.000006 -0.000006 -0.011221 -0.112546 -21.160100
0.000000 0.000000 0.000000 0.000000 0.000000 -0.000000 159.846000 91.493100 116.760000 89.810200 -41.072700 -2.043250 15.735700 0.000005 -0.000001 50.635500 84.234600 -51.533100 8.984550 -0.406207 -0.000000 1.103580 -7.258080 -1.725590 16.377300 -0.000001 -0.000001 -0.921357 -9.505970 -3.113630 6.456720 -0.000001 -0.000000 -6.689680 -10.780700 -4.359410 12.994200 -0.242716 4.980390 -90.926100 3.639360 -75.712300 5.348090 -0.000007 -0.000001 -48.375200 10.283000 -22.681900 24.328600 0.000019 0.000005 10.212000 19.845500 -27.952100 22.291600 -0.000001 0.000005 15.460200 5.196800 2.799480 12.994500 -0.242716 -4.980390 87.829100 10.185600 -77.901100 -5.348130 -0.000001 -0.000004 -65.854400 19.187000 2.991320 -24.328900 0.000322 -0.000009 1.556100 8.382590 -10.569000 -22.291500 -0.000108 -0.000004 16.704600 5.325590 -0.665163 -2.192480 -6.469440 -0.000000 -176.863000 -26.445800 1.877770 39.081100 -0.000007 -0.000012 0.011055 -0.019974 28.961600 40.985400 -0.000006 -0.000013 -3.190970 5.252140 -65.064700 11.754300 -0.000000 0.000003 -0.042030 -0.268114 -27.596500 -2.192510 6.469440 -0.000001 -165.162000 21.414300 158.370000 -39.081100 -0.002282 -0.040193 -0.006235 0.026949 19.526500 -40.985400 0.000008 0.000006 1.154460 7.050310 -60.349800 -11.754300 -0.000006 -0.000006 -0.010930 -0.110459 -21.074700
